<mxfile host="app.diagrams.net" agent="Mozilla/5.0 (Windows NT 10.0; Win64; x64) AppleWebKit/537.36 (KHTML, like Gecko) Chrome/136.0.0.0 Safari/537.36" version="27.0.6">
  <diagram name="Page-1" id="929967ad-93f9-6ef4-fab6-5d389245f69c">
    <mxGraphModel dx="1303" dy="703" grid="1" gridSize="10" guides="1" tooltips="1" connect="1" arrows="1" fold="1" page="1" pageScale="1.5" pageWidth="1169" pageHeight="826" background="none" math="0" shadow="0">
      <root>
        <mxCell id="0" style=";html=1;" />
        <mxCell id="1" style=";html=1;" parent="0" />
        <mxCell id="3WThKrtTpSp3f6bvi-z2-1" value="Drone" style="verticalAlign=top;align=left;spacingTop=8;spacingLeft=2;spacingRight=12;shape=cube;size=10;direction=south;fontStyle=4;html=1;whiteSpace=wrap;" parent="1" vertex="1">
          <mxGeometry x="180" y="140" width="210" height="150" as="geometry" />
        </mxCell>
        <mxCell id="3WThKrtTpSp3f6bvi-z2-2" value="droneOperation.exe" style="html=1;dropTarget=0;whiteSpace=wrap;" parent="1" vertex="1">
          <mxGeometry x="210" y="190" width="140" height="60" as="geometry" />
        </mxCell>
        <mxCell id="3WThKrtTpSp3f6bvi-z2-3" value="" style="shape=module;jettyWidth=8;jettyHeight=4;" parent="3WThKrtTpSp3f6bvi-z2-2" vertex="1">
          <mxGeometry x="1" width="21" height="20" relative="1" as="geometry">
            <mxPoint x="-28" y="7" as="offset" />
          </mxGeometry>
        </mxCell>
        <mxCell id="3WThKrtTpSp3f6bvi-z2-6" value="API Gateway" style="verticalAlign=top;align=left;spacingTop=8;spacingLeft=2;spacingRight=12;shape=cube;size=10;direction=south;fontStyle=4;html=1;whiteSpace=wrap;" parent="1" vertex="1">
          <mxGeometry x="480" y="140" width="210" height="150" as="geometry" />
        </mxCell>
        <mxCell id="3WThKrtTpSp3f6bvi-z2-4" value="AI responses" style="html=1;dropTarget=0;whiteSpace=wrap;" parent="1" vertex="1">
          <mxGeometry x="510" y="185" width="120" height="60" as="geometry" />
        </mxCell>
        <mxCell id="3WThKrtTpSp3f6bvi-z2-5" value="" style="shape=module;jettyWidth=8;jettyHeight=4;" parent="3WThKrtTpSp3f6bvi-z2-4" vertex="1">
          <mxGeometry x="1" width="21" height="20" relative="1" as="geometry">
            <mxPoint x="-28" y="7" as="offset" />
          </mxGeometry>
        </mxCell>
        <mxCell id="3WThKrtTpSp3f6bvi-z2-7" style="edgeStyle=orthogonalEdgeStyle;rounded=0;orthogonalLoop=1;jettySize=auto;html=1;exitX=0;exitY=0;exitDx=10;exitDy=210;exitPerimeter=0;entryX=0.067;entryY=0.048;entryDx=0;entryDy=0;entryPerimeter=0;" parent="1" source="3WThKrtTpSp3f6bvi-z2-6" target="3WThKrtTpSp3f6bvi-z2-1" edge="1">
          <mxGeometry relative="1" as="geometry" />
        </mxCell>
        <mxCell id="3WThKrtTpSp3f6bvi-z2-8" value="TLS/TCIIP" style="edgeLabel;html=1;align=center;verticalAlign=middle;resizable=0;points=[];" parent="3WThKrtTpSp3f6bvi-z2-7" vertex="1" connectable="0">
          <mxGeometry x="-0.1022" y="-1" relative="1" as="geometry">
            <mxPoint as="offset" />
          </mxGeometry>
        </mxCell>
        <mxCell id="AI8M7emQGo3KFg-vgBTA-1" value="Firewall" style="verticalAlign=top;align=left;spacingTop=8;spacingLeft=2;spacingRight=12;shape=cube;size=10;direction=south;fontStyle=4;html=1;whiteSpace=wrap;" vertex="1" parent="1">
          <mxGeometry x="175" y="370" width="210" height="150" as="geometry" />
        </mxCell>
        <mxCell id="AI8M7emQGo3KFg-vgBTA-2" value="ACLs" style="html=1;dropTarget=0;whiteSpace=wrap;" vertex="1" parent="1">
          <mxGeometry x="210" y="420" width="120" height="60" as="geometry" />
        </mxCell>
        <mxCell id="AI8M7emQGo3KFg-vgBTA-3" value="" style="shape=module;jettyWidth=8;jettyHeight=4;" vertex="1" parent="AI8M7emQGo3KFg-vgBTA-2">
          <mxGeometry x="1" width="21" height="20" relative="1" as="geometry">
            <mxPoint x="-28" y="7" as="offset" />
          </mxGeometry>
        </mxCell>
        <mxCell id="AI8M7emQGo3KFg-vgBTA-4" style="edgeStyle=orthogonalEdgeStyle;rounded=0;orthogonalLoop=1;jettySize=auto;html=1;exitX=1;exitY=1;exitDx=0;exitDy=0;exitPerimeter=0;entryX=0;entryY=0;entryDx=5;entryDy=205;entryPerimeter=0;" edge="1" parent="1" source="3WThKrtTpSp3f6bvi-z2-1" target="AI8M7emQGo3KFg-vgBTA-1">
          <mxGeometry relative="1" as="geometry" />
        </mxCell>
        <mxCell id="AI8M7emQGo3KFg-vgBTA-5" value="HTTPS" style="edgeLabel;html=1;align=center;verticalAlign=middle;resizable=0;points=[];" vertex="1" connectable="0" parent="AI8M7emQGo3KFg-vgBTA-4">
          <mxGeometry x="0.3976" y="-2" relative="1" as="geometry">
            <mxPoint as="offset" />
          </mxGeometry>
        </mxCell>
        <mxCell id="AI8M7emQGo3KFg-vgBTA-6" value="Rede Interna" style="verticalAlign=top;align=left;spacingTop=8;spacingLeft=2;spacingRight=12;shape=cube;size=10;direction=south;fontStyle=4;html=1;whiteSpace=wrap;" vertex="1" parent="1">
          <mxGeometry x="175" y="590" width="785" height="430" as="geometry" />
        </mxCell>
        <mxCell id="AI8M7emQGo3KFg-vgBTA-9" style="edgeStyle=orthogonalEdgeStyle;rounded=0;orthogonalLoop=1;jettySize=auto;html=1;exitX=1;exitY=1;exitDx=0;exitDy=0;exitPerimeter=0;entryX=0;entryY=0;entryDx=10;entryDy=210;entryPerimeter=0;" edge="1" parent="1">
          <mxGeometry relative="1" as="geometry">
            <mxPoint x="175" y="521" as="sourcePoint" />
            <mxPoint x="175" y="601" as="targetPoint" />
          </mxGeometry>
        </mxCell>
        <mxCell id="AI8M7emQGo3KFg-vgBTA-34" value="HTTPS" style="edgeLabel;html=1;align=center;verticalAlign=middle;resizable=0;points=[];" vertex="1" connectable="0" parent="AI8M7emQGo3KFg-vgBTA-9">
          <mxGeometry x="-0.2187" y="6" relative="1" as="geometry">
            <mxPoint as="offset" />
          </mxGeometry>
        </mxCell>
        <mxCell id="AI8M7emQGo3KFg-vgBTA-11" value="Servidor Central" style="verticalAlign=top;align=left;spacingTop=8;spacingLeft=2;spacingRight=12;shape=cube;size=10;direction=south;fontStyle=4;html=1;whiteSpace=wrap;" vertex="1" parent="1">
          <mxGeometry x="190" y="640" width="420" height="170" as="geometry" />
        </mxCell>
        <mxCell id="AI8M7emQGo3KFg-vgBTA-12" value="system.exe" style="html=1;dropTarget=0;whiteSpace=wrap;" vertex="1" parent="1">
          <mxGeometry x="225" y="690" width="120" height="60" as="geometry" />
        </mxCell>
        <mxCell id="AI8M7emQGo3KFg-vgBTA-13" value="" style="shape=module;jettyWidth=8;jettyHeight=4;" vertex="1" parent="AI8M7emQGo3KFg-vgBTA-12">
          <mxGeometry x="1" width="21" height="20" relative="1" as="geometry">
            <mxPoint x="-28" y="7" as="offset" />
          </mxGeometry>
        </mxCell>
        <mxCell id="AI8M7emQGo3KFg-vgBTA-14" value="Database Server" style="verticalAlign=top;align=left;spacingTop=8;spacingLeft=2;spacingRight=12;shape=cube;size=10;direction=south;fontStyle=4;html=1;whiteSpace=wrap;" vertex="1" parent="1">
          <mxGeometry x="295" y="850" width="210" height="150" as="geometry" />
        </mxCell>
        <mxCell id="AI8M7emQGo3KFg-vgBTA-15" value="postgre.sql" style="html=1;dropTarget=0;whiteSpace=wrap;" vertex="1" parent="1">
          <mxGeometry x="330" y="910" width="120" height="60" as="geometry" />
        </mxCell>
        <mxCell id="AI8M7emQGo3KFg-vgBTA-16" value="" style="shape=module;jettyWidth=8;jettyHeight=4;" vertex="1" parent="AI8M7emQGo3KFg-vgBTA-15">
          <mxGeometry x="1" width="21" height="20" relative="1" as="geometry">
            <mxPoint x="-28" y="7" as="offset" />
          </mxGeometry>
        </mxCell>
        <mxCell id="AI8M7emQGo3KFg-vgBTA-19" value="Authentication Service" style="verticalAlign=top;align=left;spacingTop=8;spacingLeft=2;spacingRight=12;shape=cube;size=10;direction=south;fontStyle=4;html=1;whiteSpace=wrap;" vertex="1" parent="1">
          <mxGeometry x="370" y="670" width="210" height="120" as="geometry" />
        </mxCell>
        <mxCell id="AI8M7emQGo3KFg-vgBTA-17" value="openLDAP" style="html=1;dropTarget=0;whiteSpace=wrap;" vertex="1" parent="1">
          <mxGeometry x="410" y="715" width="120" height="60" as="geometry" />
        </mxCell>
        <mxCell id="AI8M7emQGo3KFg-vgBTA-18" value="" style="shape=module;jettyWidth=8;jettyHeight=4;" vertex="1" parent="AI8M7emQGo3KFg-vgBTA-17">
          <mxGeometry x="1" width="21" height="20" relative="1" as="geometry">
            <mxPoint x="-28" y="7" as="offset" />
          </mxGeometry>
        </mxCell>
        <mxCell id="AI8M7emQGo3KFg-vgBTA-20" value="Logging Server" style="verticalAlign=top;align=left;spacingTop=8;spacingLeft=2;spacingRight=12;shape=cube;size=10;direction=south;fontStyle=4;html=1;whiteSpace=wrap;" vertex="1" parent="1">
          <mxGeometry x="640" y="640" width="300" height="150" as="geometry" />
        </mxCell>
        <mxCell id="AI8M7emQGo3KFg-vgBTA-21" value="Wazuh/Logstash" style="html=1;dropTarget=0;whiteSpace=wrap;" vertex="1" parent="1">
          <mxGeometry x="650" y="700" width="125" height="60" as="geometry" />
        </mxCell>
        <mxCell id="AI8M7emQGo3KFg-vgBTA-22" value="" style="shape=module;jettyWidth=8;jettyHeight=4;" vertex="1" parent="AI8M7emQGo3KFg-vgBTA-21">
          <mxGeometry x="1" width="21" height="20" relative="1" as="geometry">
            <mxPoint x="-28" y="7" as="offset" />
          </mxGeometry>
        </mxCell>
        <mxCell id="AI8M7emQGo3KFg-vgBTA-29" value="Suricata" style="html=1;dropTarget=0;whiteSpace=wrap;" vertex="1" parent="1">
          <mxGeometry x="790" y="700" width="125" height="60" as="geometry" />
        </mxCell>
        <mxCell id="AI8M7emQGo3KFg-vgBTA-30" value="" style="shape=module;jettyWidth=8;jettyHeight=4;" vertex="1" parent="AI8M7emQGo3KFg-vgBTA-29">
          <mxGeometry x="1" width="21" height="20" relative="1" as="geometry">
            <mxPoint x="-28" y="7" as="offset" />
          </mxGeometry>
        </mxCell>
        <mxCell id="AI8M7emQGo3KFg-vgBTA-32" style="edgeStyle=orthogonalEdgeStyle;rounded=0;orthogonalLoop=1;jettySize=auto;html=1;exitX=0;exitY=0;exitDx=0;exitDy=0;exitPerimeter=0;entryX=0;entryY=0;entryDx=10;entryDy=300;entryPerimeter=0;" edge="1" parent="1" source="AI8M7emQGo3KFg-vgBTA-1" target="AI8M7emQGo3KFg-vgBTA-20">
          <mxGeometry relative="1" as="geometry">
            <Array as="points">
              <mxPoint x="640" y="370" />
            </Array>
          </mxGeometry>
        </mxCell>
        <mxCell id="AI8M7emQGo3KFg-vgBTA-33" value="Port Mirroring" style="edgeLabel;html=1;align=center;verticalAlign=middle;resizable=0;points=[];" vertex="1" connectable="0" parent="AI8M7emQGo3KFg-vgBTA-32">
          <mxGeometry x="0.3449" y="3" relative="1" as="geometry">
            <mxPoint as="offset" />
          </mxGeometry>
        </mxCell>
        <mxCell id="AI8M7emQGo3KFg-vgBTA-36" style="edgeStyle=orthogonalEdgeStyle;rounded=0;orthogonalLoop=1;jettySize=auto;html=1;exitX=1;exitY=1;exitDx=0;exitDy=0;exitPerimeter=0;entryX=0;entryY=0;entryDx=10;entryDy=210;entryPerimeter=0;" edge="1" parent="1" source="AI8M7emQGo3KFg-vgBTA-11" target="AI8M7emQGo3KFg-vgBTA-14">
          <mxGeometry relative="1" as="geometry" />
        </mxCell>
        <mxCell id="AI8M7emQGo3KFg-vgBTA-37" value="ODBC(SSL)" style="edgeLabel;html=1;align=center;verticalAlign=middle;resizable=0;points=[];" vertex="1" connectable="0" parent="AI8M7emQGo3KFg-vgBTA-36">
          <mxGeometry x="0.0613" y="-2" relative="1" as="geometry">
            <mxPoint as="offset" />
          </mxGeometry>
        </mxCell>
      </root>
    </mxGraphModel>
  </diagram>
</mxfile>
